<svg height="512" viewBox="0 0 128 128" width="512" xmlns="http://www.w3.org/2000/svg"><path d="m46.25 60.332h26.625a1.75 1.75 0 0 0 0-3.5h-26.625a1.75 1.75 0 0 0 0 3.5z"/><path d="m101.463 81.5h-11.106a8.622 8.622 0 0 0 1.548-3.419h9.558a1.751 1.751 0 0 0 1.747-1.849l-.57-10.117a9.843 9.843 0 0 0 -9.822-9.284h-9.582l-9.31-13.1a1.752 1.752 0 0 0 -1.426-.731h-29.677a1.752 1.752 0 0 0 -1.669 1.223l-3.983 12.61h-2.926a8.132 8.132 0 0 0 -8.086 7.226l-1.359 12.077a1.75 1.75 0 0 0 1.739 1.946h5.641a8.622 8.622 0 0 0 1.546 3.418h-7.189a1.75 1.75 0 0 0 0 3.5h74.926a1.75 1.75 0 0 0 0-3.5zm-52.3-3.419h25.761a8.622 8.622 0 0 0 1.548 3.419h-28.86a8.622 8.622 0 0 0 1.548-3.418zm29.086-1.75a5.169 5.169 0 1 1 5.165 5.169 5.174 5.174 0 0 1 -5.168-5.168zm-48.611-11.881a4.633 4.633 0 0 1 4.607-4.118h4.208a1.75 1.75 0 0 0 1.669-1.223l3.983-12.609h27.495l9.31 13.1a1.752 1.752 0 0 0 1.427.736h10.481a6.341 6.341 0 0 1 6.328 5.981l.465 8.269h-7.706a8.669 8.669 0 0 0 -16.981 0h-25.764a8.67 8.67 0 0 0 -16.982 0h-3.678zm5.862 11.882a5.169 5.169 0 1 1 5.169 5.168 5.174 5.174 0 0 1 -5.169-5.168z"/></svg>