<svg enable-background="new 0 0 55.017 55.017" viewBox="0 0 55.017 55.017" xmlns="http://www.w3.org/2000/svg"><path d="m51.688 23.013h-10.899c-.553 0-1 .447-1 1s.447 1 1 1h9.102l2.899 27h-50.522l3.403-27h9.118c.553 0 1-.447 1-1s-.447-1-1-1h-10.882l-3.907 31h55.017z"/><path d="m26.654 38.968c-.147.087-.304.164-.445.255-.22.142-.435.291-.646.445-.445.327-.541.953-.215 1.398.196.267.5.408.808.408.205 0 .412-.063.591-.193.178-.131.359-.257.548-.379.321-.208.662-.403 1.014-.581.468-.237.658-.791.462-1.269.008-.008.018-.014.025-.022 1.809-1.916 7.905-9.096 10.429-21.058.512-2.426.627-4.754.342-6.919-.86-6.575-4.945-10.051-11.813-10.051-6.866 0-10.951 3.476-11.813 10.051-.284 2.166-.169 4.494.343 6.919 2.499 11.846 8.499 18.998 10.37 20.996zm-8.73-27.654c.733-5.592 3.949-8.311 9.831-8.311 5.883 0 9.098 2.719 9.83 8.311.255 1.94.148 4.043-.316 6.247-2.269 10.753-7.679 17.576-9.514 19.646-1.837-2.072-7.246-8.898-9.514-19.646-.465-2.204-.571-4.306-.317-6.247z"/><path d="m27.755 19.925c4.051 0 7.346-3.295 7.346-7.346s-3.295-7.346-7.346-7.346-7.346 3.295-7.346 7.346 3.295 7.346 7.346 7.346zm0-12.691c2.947 0 5.346 2.398 5.346 5.346s-2.398 5.346-5.346 5.346-5.346-2.398-5.346-5.346 2.399-5.346 5.346-5.346z"/><path d="m31.428 37.17c-.54.114-.884.646-.769 1.187.1.47.515.791.977.791.069 0 .14-.007.21-.022.586-.124 1.221-.229 1.886-.313.548-.067.938-.567.869-1.115-.068-.549-.563-.945-1.115-.869-.723.089-1.416.204-2.058.341z"/><path d="m36.599 37.576c.022.537.466.957.998.957.015 0 .029 0 .044-.001l2.001-.083c.551-.025.979-.493.953-1.044-.025-.553-.539-.984-1.044-.954l-1.996.083c-.552.023-.98.489-.956 1.042z"/><path d="m22.433 42.177c-.514.388-1.045.761-1.58 1.107-.463.301-.595.92-.294 1.384.191.295.513.455.84.455.187 0 .375-.052.544-.161.573-.372 1.144-.772 1.695-1.188.44-.333.528-.96.196-1.401-.333-.437-.958-.529-1.401-.196z"/><path d="m44.72 35.583c-.338.237-.777.409-1.346.526-.541.111-.889.641-.777 1.182.098.473.514.798.979.798.067 0 .135-.007.203-.021.842-.174 1.526-.452 2.096-.853l.134-.098c.44-.334.527-.961.194-1.401-.334-.44-.96-.526-1.401-.194z"/><path d="m8.86 43.402c.145-.533-.171-1.082-.704-1.226-.529-.149-1.082.169-1.226.704-.126.464-.201.938-.225 1.405-.005.115-.008.231-.008.353.001.196.01.392.029.587.053.515.487.898.994.898.033 0 .067-.002.103-.005.549-.057.949-.547.894-1.097-.014-.131-.019-.264-.02-.39 0-.083.003-.166.007-.248.016-.324.068-.655.156-.981z"/><path d="m44.698 27.81c-.794-.106-1.604-.041-2.386.181-.532.149-.841.702-.69 1.233.124.441.525.729.961.729.091 0 .182-.012.272-.038.52-.146 1.055-.192 1.575-.122.562.07 1.052-.311 1.125-.857.074-.549-.31-1.052-.857-1.126z"/><path d="m46.688 32.764c-.163.527.133 1.088.66 1.25.099.031.197.045.295.045.428 0 .823-.275.955-.705.099-.318.16-.641.183-.963.005-.083.008-.167.008-.25 0-.468-.086-.937-.255-1.392-.192-.519-.771-.781-1.285-.59-.519.192-.782.768-.59 1.285.086.232.13.467.13.696l-.003.117c-.012.166-.044.332-.098.507z"/><path d="m17.481 45.164c-.586.275-1.183.53-1.774.759-.515.198-.771.777-.572 1.293.153.396.531.64.933.64.12 0 .242-.021.36-.067.635-.245 1.275-.519 1.903-.813.5-.234.715-.83.48-1.33-.233-.501-.827-.718-1.33-.482z"/><path d="m10.201 41.001c.161 0 .325-.039.478-.122.288-.157.595-.255.911-.289.135-.016.273-.016.406.002.563.073 1.05-.313 1.122-.86.072-.548-.313-1.05-.86-1.122-.298-.039-.601-.041-.891-.008-.574.063-1.128.239-1.646.521-.485.265-.664.871-.399 1.356.182.334.525.522.879.522z"/><path d="m9.993 48.842c.216.056.436.098.654.124.256.031.512.047.769.047.313 0 .627-.022.94-.062.548-.069.937-.569.867-1.117s-.567-.934-1.117-.867c-.404.052-.812.064-1.216.015-.132-.017-.264-.042-.394-.075-.535-.143-1.08.181-1.22.716-.137.535.183 1.081.717 1.219z"/></svg>