<svg height="512" viewBox="0 0 512 512" width="512" xmlns="http://www.w3.org/2000/svg"><path d="m437.27 80h-27.27v-2.59c0-19.85-15.84-36.41-35.69-36.41h-281.58c-19.85 0-35.73 16.56-35.73 36.41v357.18c0 19.85 15.88 36.41 35.73 36.41h281.58c19.85 0 35.69-16.56 35.69-36.41v-2.59h27.27a17.529 17.529 0 0 0 17.73-17.69v-316.62a17.529 17.529 0 0 0 -17.73-17.69zm-326.27 379h-18.27c-13.23 0-23.73-11.177-23.73-24.41v-357.18c0-13.233 10.5-24.41 23.73-24.41h18.27zm332-44.69a5.523 5.523 0 0 1 -5.73 5.69h-27.27v-73h33zm0-79.31h-33v-73h33zm0-85h-33v-73h33zm0-85h-33v-14.116a6 6 0 0 0 -12 0v283.706c0 13.233-10.457 24.41-23.69 24.41h-251.31v-406h251.31c13.233 0 23.69 11.177 23.69 24.41v43.43a6 6 0 1 0 12 0v-28.84h27.27a5.523 5.523 0 0 1 5.73 5.69z"/><path d="m359 103.44a6 6 0 0 0 6-6v-3.6a6 6 0 0 0 -12 0v3.6a6 6 0 0 0 6 6z"/><path d="m359 238.03a6 6 0 0 0 6-6v-114.51a6 6 0 1 0 -12 0v114.51a6 6 0 0 0 6 6z"/><path d="m376.672 335.257-41.438-41.438a12.41 12.41 0 0 0 -18.294.84l-14.94 17.918a6.81 6.81 0 0 1 -10.04.46l-73.449-73.449a6.8 6.8 0 0 1 .456-10.037l17.924-14.943a12.412 12.412 0 0 0 .83-18.3l-41.431-41.423a12.394 12.394 0 0 0 -18.861 1.556l-32.8 45.921a31.512 31.512 0 0 0 3.371 40.731l140.46 140.462a31.525 31.525 0 0 0 40.727 3.368l45.921-32.8a12.411 12.411 0 0 0 1.564-18.865zm-189.481-171.839a.384.384 0 0 1 .3-.171h.039a.352.352 0 0 1 .268.118l41.439 41.429a.379.379 0 0 1 .116.3.385.385 0 0 1 -.146.3l-9.173 7.647-39.834-39.835zm135.022 213.74a19.562 19.562 0 0 1 -25.271-2.091l-140.46-140.46a19.551 19.551 0 0 1 -2.089-25.27l18.737-26.232 37.675 37.674a18.765 18.765 0 0 0 -.778 27.294l73.451 73.449a18.771 18.771 0 0 0 27.3-.78l37.671 37.678zm45.918-32.8-9.786 6.99-39.829-39.838 7.642-9.167a.379.379 0 0 1 .292-.146.388.388 0 0 1 .308.115l41.422 41.423a.388.388 0 0 1 .119.328.371.371 0 0 1 -.168.296z"/><path d="m214.64 155.88a23.408 23.408 0 0 1 23.46 23.3 5.861 5.861 0 0 0 6 5.824h.01a5.809 5.809 0 0 0 5.99-5.786 35.356 35.356 0 0 0 -35.439-35.218h-.011a5.94 5.94 0 1 0 -.01 11.88z"/><path d="m220.1 131.106a43.36 43.36 0 0 1 43.08 43.078 5.886 5.886 0 0 0 6 5.816h.05a5.87 5.87 0 0 0 5.951-5.914c-.246-30.344-24.955-54.964-55.08-54.964a6.029 6.029 0 0 0 -6 6.034 5.957 5.957 0 0 0 5.999 5.95z"/></svg>