<svg enable-background="new 0 0 512 512" viewBox="0 0 512 512" xmlns="http://www.w3.org/2000/svg"><path d="m176.792 0h-117.584c-32.647 0-59.208 26.561-59.208 59.208v117.584c0 32.647 26.561 59.208 59.208 59.208h117.584c32.647 0 59.208-26.561 59.208-59.208v-117.584c0-32.647-26.561-59.208-59.208-59.208zm19.208 176.792c0 10.591-8.617 19.208-19.208 19.208h-117.584c-10.591 0-19.208-8.617-19.208-19.208v-117.584c0-10.591 8.617-19.208 19.208-19.208h117.584c10.591 0 19.208 8.617 19.208 19.208z"/><path d="m452 0h-116c-33.084 0-60 26.916-60 60v116c0 33.084 26.916 60 60 60h116c33.084 0 60-26.916 60-60v-116c0-33.084-26.916-60-60-60zm20 176c0 11.028-8.972 20-20 20h-116c-11.028 0-20-8.972-20-20v-116c0-11.028 8.972-20 20-20h116c11.028 0 20 8.972 20 20z"/><path d="m176.792 276h-117.584c-32.647 0-59.208 26.561-59.208 59.208v117.584c0 32.647 26.561 59.208 59.208 59.208h117.584c32.647 0 59.208-26.561 59.208-59.208v-117.584c0-32.647-26.561-59.208-59.208-59.208zm19.208 176.792c0 10.591-8.617 19.208-19.208 19.208h-117.584c-10.591 0-19.208-8.617-19.208-19.208v-117.584c0-10.591 8.617-19.208 19.208-19.208h117.584c10.591 0 19.208 8.617 19.208 19.208z"/><path d="m452 276h-116c-33.084 0-60 26.916-60 60v116c0 33.084 26.916 60 60 60h116c33.084 0 60-26.916 60-60v-116c0-33.084-26.916-60-60-60zm20 176c0 11.028-8.972 20-20 20h-116c-11.028 0-20-8.972-20-20v-116c0-11.028 8.972-20 20-20h116c11.028 0 20 8.972 20 20z"/></svg>