<svg viewBox="0 0 134.91 23.88" xmlns="http://www.w3.org/2000/svg"><g fill="#e30613" fill-rule="evenodd"><path d="m10.25 10a11.94 11.94 0 1 1 11.94 11.88 11.93 11.93 0 0 1 -11.94-11.88zm11.94 7.56c3.68 0 6.66-3.39 6.66-7.56s-3-7.57-6.66-7.57-6.67 3.34-6.67 7.57 3 7.56 6.67 7.56z" transform="translate(57.11 1.99)"/><path d="m104.78 4.97v18.37h-5.03v-18.37h.02-7.04v-4.15h19.07v4.15h-7z"/><path d="m60.78 16.28-1.93 5.06h-5.85l9.26-22.51h6.26l9.29 22.51h-5.88l-1.93-5.06zm4.61-3.8h3.16l-3.14-8.24-3.15 8.24h3.17z" transform="translate(57.11 1.99)"/><path d="m12.05 4.97v18.37h-5.03v-18.37h.02-7.04v-4.15h19.07v4.15h-7z"/><path d="m-36.75 10a11.93 11.93 0 0 1 11.94-12 11.94 11.94 0 0 1 11.94 12 11.94 11.94 0 0 1 -11.94 11.88 11.93 11.93 0 0 1 -11.94-11.88zm11.94 7.56c3.68 0 6.67-3.39 6.67-7.56s-3-7.57-6.67-7.57-6.67 3.34-6.67 7.57 3 7.56 6.67 7.56z" transform="translate(57.11 1.99)"/><path d="m55.79 23.34h2.55v-8.45-.1l8.78-13.97h-5.87l-5.46 9.47-5.45-9.47h-5.87l8.77 13.97v.1 8.45z"/></g></svg>