<svg viewBox="0 0 35.11 22.87" xmlns="http://www.w3.org/2000/svg"><path d="m10.17 20.27c-1.84-1.15-3.17-5.13-3.17-9.86v-.51c-5.12-.81-8.81-3-8.91-5.62a8.35 8.35 0 0 0 -2 5.28c0 5.64 6.19 10.27 14.05 10.67zm-16.45-10.27c0-6.31 7.86-11.43 17.55-11.43s17.56 5.12 17.56 11.43-7.83 11.43-17.56 11.43-17.55-5.12-17.55-11.43zm17.55-9.78c1.87 0 3.47 2.83 4.06 6.8 3.64-.57 6.19-1.87 6.19-3.4 0-2-4.59-3.69-10.25-3.69s-10.27 1.64-10.27 3.68c0 1.53 2.58 2.83 6.22 3.39.59-4 2.18-6.8 4.05-6.8zm1.14 20c7.85-.4 14.05-5 14.05-10.67a8.4 8.4 0 0 0 -2-5.28c-.1 2.61-3.8 4.81-8.92 5.62v.51c0 4.73-1.36 8.71-3.2 9.86zm-1.14-13c.84 0 1.66 0 2.44-.1-.39-2.54-1.34-4.33-2.44-4.33s-2 1.79-2.43 4.33c.78.06 1.59.1 2.43.1zm0 9.4c1.41 0 2.56-2.93 2.62-6.61-.85.07-1.73.12-2.63.12s-1.77-.05-2.62-.12c.07 3.68 1.21 6.61 2.62 6.61z" fill="#f6f6f6" fill-rule="evenodd" transform="translate(6.28 1.43)"/></svg>